<svg class="cords-logo" xmlns="http://www.w3.org/2000/svg" width="60" height="18" viewBox="0 0 60 18" data-v-31ee42d8="" data-v-3e4bf1b6=""><path d="M8.4,17.3c-2.4,0-4.4-0.8-6-2.4C0.8,13.3,0,11.3,0,9s0.8-4.3,2.4-5.9C4,1.5,6,0.7,8.4,0.7c1.5,0,2.8,0.4,4.1,1.1s2.2,1.7,2.9,2.9l-1.9,1.1C13,4.8,12.4,4,11.4,3.5c-0.9-0.5-1.9-0.8-3-0.8C6.6,2.7,5,3.3,3.9,4.5C2.7,5.7,2.1,7.2,2.1,9c0,1.8,0.6,3.3,1.8,4.5c1.2,1.2,2.7,1.8,4.5,1.8c1.1,0,2.1-0.3,3-0.8c0.9-0.5,1.6-1.2,2.1-2.1l1.9,1.1c-0.7,1.2-1.6,2.1-2.9,2.9C11.2,17,9.9,17.3,8.4,17.3z" data-v-31ee42d8=""></path><path d="M26.9,15.6c-1.2,1.2-2.6,1.7-4.3,1.7c-1.7,0-3.1-0.6-4.3-1.7c-1.2-1.2-1.8-2.6-1.8-4.3s0.6-3.1,1.8-4.3c1.2-1.2,2.6-1.7,4.3-1.7c1.7,0,3.1,0.6,4.3,1.7c1.2,1.2,1.8,2.6,1.8,4.3S28.1,14.4,26.9,15.6z M22.6,15.4c1.1,0,2.1-0.4,2.9-1.2c0.8-0.8,1.2-1.8,1.2-2.9c0-1.2-0.4-2.1-1.2-2.9c-0.8-0.8-1.7-1.2-2.9-1.2c-1.1,0-2.1,0.4-2.9,1.2c-0.8,0.8-1.2,1.8-1.2,2.9c0,1.2,0.4,2.1,1.2,2.9C20.5,15,21.4,15.4,22.6,15.4z" data-v-31ee42d8=""></path><path d="M32.4,7.5c0.7-1.4,1.9-2.1,3.6-2.1v2.1c-1,0-1.8,0.2-2.5,0.8c-0.7,0.6-1.1,1.5-1.1,2.7V17h-2V5.6h2V7.5z" data-v-31ee42d8=""></path><path d="M46.9,1h2V17h-2v-2c-1,1.5-2.4,2.3-4.3,2.3c-1.6,0-3-0.6-4.1-1.8c-1.1-1.2-1.7-2.6-1.7-4.3s0.6-3.1,1.7-4.3c1.1-1.2,2.5-1.8,4.1-1.8c1.9,0,3.3,0.8,4.3,2.3V1z M42.8,15.4c1.2,0,2.1-0.4,2.9-1.2c0.8-0.8,1.2-1.8,1.2-2.9c0-1.2-0.4-2.1-1.2-2.9c-0.8-0.8-1.8-1.2-2.9-1.2c-1.1,0-2.1,0.4-2.9,1.2c-0.8,0.8-1.2,1.8-1.2,2.9c0,1.2,0.4,2.1,1.2,2.9C40.7,15,41.6,15.4,42.8,15.4z" data-v-31ee42d8=""></path><path d="M53.3,8.7c0,0.4,0.2,0.8,0.7,1.1c0.4,0.3,1,0.5,1.6,0.6c0.6,0.2,1.3,0.3,1.9,0.6c0.6,0.2,1.2,0.6,1.6,1.1c0.4,0.5,0.7,1.1,0.7,1.9c0,1-0.4,1.9-1.2,2.5c-0.8,0.6-1.8,0.9-3.1,0.9c-1.1,0-2.1-0.2-2.9-0.7c-0.8-0.5-1.4-1.1-1.7-2l1.7-1c0.2,0.6,0.5,1,1,1.3c0.5,0.3,1.1,0.5,1.8,0.5c0.7,0,1.2-0.1,1.6-0.4c0.4-0.3,0.6-0.6,0.6-1.2c0-0.4-0.2-0.8-0.7-1.1c-0.4-0.3-1-0.5-1.6-0.6c-0.6-0.2-1.3-0.3-1.9-0.6c-0.6-0.2-1.2-0.6-1.6-1.1c-0.4-0.5-0.7-1.1-0.7-1.9c0-1,0.4-1.8,1.2-2.5c0.8-0.6,1.7-1,2.9-1c0.9,0,1.8,0.2,2.5,0.6c0.7,0.4,1.3,1,1.6,1.8l-1.7,0.9c-0.4-1-1.2-1.5-2.5-1.5c-0.6,0-1.1,0.1-1.4,0.4C53.5,7.8,53.3,8.2,53.3,8.7z" data-v-31ee42d8=""></path></svg>