<svg xmlns="http://www.w3.org/2000/svg" viewBox="0 0 200 200" fill="no-clipboard-icon-component" data-v-1c94c849="" data-v-0d7c004c=""><path fill="#CADDFF" d="M77.6,13c36.3-14.1,75.8,7.1,84.2,29.4c8.4,22.3,23.6,31,29.7,39.7c6.1,8.7,16.5,49.1-8.4,63.3
		c-22.3,12.8-8.4,37.6-39.4,46c-5.9,1.6-12.1,2.1-18.2,1.7c-10.4-0.8-38.9-3.1-56.8-2.5c-18.9,0.6-51,13.5-63-38.8
		c0,0-4.1-26.5,1-48.5C11.3,83.5,19.2,35.7,77.6,13z" data-v-1c94c849=""></path><g data-v-1c94c849=""><g data-v-1c94c849=""><path fill="#5479F7" d="M36.6,158.8l-3.9-3.1c-1.1-0.9-1.7-2.2-1.6-3.7c0.4-7.6,1.5-33.3,0.8-58.5c-0.8-27.7-0.9-72.1-0.9-79
				c0-0.5,0.4-0.9,0.9-0.9l87.8,1.4c0.4,0,0.9,0.1,1.3,0.2l4.2,1.6L36.6,158.8z" data-v-1c94c849=""></path><path fill="#99B9FF" d="M59.3,152.7l-22.6,6L35.2,16.2c0-0.5,0.4-0.9,0.9-0.9l89.1,1.5l-0.9,116L59.3,152.7z" data-v-1c94c849=""></path><g data-v-1c94c849=""><path fill="#fff" d="M76.5,155.2L62,160.5c-0.3,0.1-0.7-0.1-0.8-0.4c-2.3-7.9-24.3-85.4-21.4-132.2c0-0.2,0.2-0.4,0.4-0.4
					l2.7-0.1L76.5,155.2z" data-v-1c94c849=""></path><path fill="#000" d="M61.8,160.9c-0.2,0-0.3,0-0.5-0.1c-0.2-0.1-0.4-0.4-0.5-0.6c-2.5-8.6-24.3-85.5-21.4-132.3
					c0-0.4,0.4-0.7,0.8-0.8l2.7-0.1l0,0.7l-2.7,0.1c0,0-0.1,0-0.1,0.1c-2.8,46.6,18.9,123.4,21.4,132c0,0.1,0.1,0.1,0.1,0.2
					c0.1,0,0.1,0,0.2,0l14.4-5.2l0.2,0.7l-14.4,5.2C62,160.8,61.9,160.9,61.8,160.9z" data-v-1c94c849=""></path></g><g data-v-1c94c849=""><path fill="#fff" d="M43.2,22.4c2.7,0.7,45.7,5.6,83.9-1.7c0.2,0,0.5,0.1,0.5,0.4c-0.3,6.7-3.4,77.2,32.6,113.5
					c0,0,1,3.3-9.6,12.4c-4.8,4.1-10.3,6.9-15.8,6.9c-6.7,0-17.4,0.8-23,2.5c-15.9,4.7-23.1,6-29.1,5.7c-0.8,0-1.6-0.4-2.1-1.1
					c-5.3-6.2-33.1-43.1-37.8-138.3C42.6,22.6,42.9,22.3,43.2,22.4z" data-v-1c94c849=""></path><path fill="#000" d="M84.3,162.7c-0.6,0-1.1,0-1.7,0c-0.9-0.1-1.8-0.5-2.4-1.2C74.7,155,47,118,42.3,22.9
					c0-0.3,0.1-0.5,0.3-0.7c0.2-0.2,0.5-0.2,0.7-0.2c2.4,0.6,45.5,5.6,83.7-1.7c0.2,0,0.5,0,0.6,0.2c0.2,0.2,0.3,0.4,0.3,0.6
					c-0.6,12.9-1.6,78.8,32.5,113.3l0.1,0.1l0,0.1c0.1,0.4,0.8,3.8-9.7,12.8c-5.3,4.6-10.9,7-16.1,7c-7.1,0-17.6,0.9-22.9,2.5
					C97.5,161.1,90.1,162.7,84.3,162.7z M43.1,22.8C43,22.8,43,22.8,43.1,22.8C43,22.8,43,22.8,43.1,22.8
					c4.7,95,32.2,131.8,37.7,138.2c0.5,0.6,1.2,0.9,1.9,0.9c6,0.3,13.4-1.1,29-5.7c5.4-1.6,16-2.5,23.1-2.5c5,0,10.4-2.4,15.6-6.9
					c9.3-8,9.5-11.5,9.5-12c-8.2-8.3-15.1-19.1-20.3-32.1c-4.3-10.6-7.5-22.6-9.6-35.8c-3.3-20.8-3-38.9-2.7-45.7c0,0,0,0,0,0
					c0,0,0,0,0,0C88.8,28.4,45.5,23.4,43.1,22.8C43.1,22.8,43.1,22.8,43.1,22.8z" data-v-1c94c849=""></path></g></g><g data-v-1c94c849=""><path fill="#000" d="M63.9,80.1c-2.7,0-4.2,0-4.3,0c-0.2,0-0.4-0.2-0.4-0.4c0-0.2,0.2-0.4,0.4-0.4c0,0,0,0,0,0
				c0.2,0,16.9,0.3,35.2-1.1c0.2,0,0.4,0.1,0.4,0.3c0,0.2-0.1,0.4-0.3,0.4C82.1,80,70.1,80.1,63.9,80.1z" data-v-1c94c849=""></path><path fill="#000" d="M85.3,87.7c-0.2,0-0.4-0.1-0.4-0.3c0-0.2,0.1-0.4,0.3-0.4c14.6-0.8,26.3-2.2,34.8-4.3
				c0.2,0,0.4,0.1,0.4,0.3c0,0.2-0.1,0.4-0.3,0.4C111.7,85.4,99.9,86.9,85.3,87.7C85.3,87.7,85.3,87.7,85.3,87.7z" data-v-1c94c849=""></path><path fill="#000" d="M63.6,88.2c-1.7,0-2.7,0-2.8,0c-0.2,0-0.4-0.2-0.4-0.4c0-0.2,0.2-0.4,0.4-0.4c0.1,0,5.9,0.1,14.3-0.2
				c0.2,0,0.4,0.2,0.4,0.4c0,0.2-0.2,0.4-0.4,0.4C70.2,88.2,66.1,88.2,63.6,88.2z" data-v-1c94c849=""></path><path fill="#000" d="M63.8,96.3c-0.2,0-0.4-0.2-0.4-0.4c0-0.2,0.2-0.4,0.4-0.4c0.4,0,41.6-0.4,62.7-6c0.2-0.1,0.4,0.1,0.4,0.3
				c0.1,0.2-0.1,0.4-0.3,0.4C105.5,96,64.3,96.3,63.8,96.3C63.8,96.3,63.8,96.3,63.8,96.3z" data-v-1c94c849=""></path><path fill="#000" d="M70.3,115.3c-0.2,0-0.3-0.1-0.4-0.3c0-0.2,0.1-0.4,0.3-0.4c0.3,0,27.2-1.8,48-5.5c0.2,0,0.4,0.1,0.4,0.3
				c0,0.2-0.1,0.4-0.3,0.4C97.6,113.5,70.6,115.3,70.3,115.3C70.3,115.3,70.3,115.3,70.3,115.3z" data-v-1c94c849=""></path><path fill="#000" d="M96.3,121.2c-0.2,0-0.3-0.1-0.4-0.3c0-0.2,0.1-0.4,0.3-0.4c16.3-1.9,29.7-4.5,38.6-7.6
				c0.2-0.1,0.4,0,0.5,0.2c0.1,0.2,0,0.4-0.2,0.5C123.8,117.4,107.8,119.8,96.3,121.2C96.3,121.2,96.3,121.2,96.3,121.2z" data-v-1c94c849=""></path><path fill="#000" d="M72,123.3c-0.2,0-0.4-0.2-0.4-0.3c0-0.2,0.1-0.4,0.3-0.4c0.1,0,5.9-0.3,14.2-1.1c0.2,0,0.4,0.1,0.4,0.3
				c0,0.2-0.1,0.4-0.3,0.4C78,123,72.1,123.3,72,123.3C72,123.3,72,123.3,72,123.3z" data-v-1c94c849=""></path><path fill="#000" d="M75.5,131.2c-0.2,0-0.3-0.1-0.4-0.3c0-0.2,0.1-0.4,0.3-0.4c0.4,0,41.5-3.1,62.2-10.1
				c0.2-0.1,0.4,0,0.5,0.2c0.1,0.2,0,0.4-0.2,0.5C117.1,128.2,75.9,131.2,75.5,131.2C75.5,131.2,75.5,131.2,75.5,131.2z" data-v-1c94c849=""></path><path fill="#000" d="M98.2,40.6c-0.2,0-0.4-0.2-0.4-0.4c0-0.2,0.2-0.4,0.4-0.4c6.7-0.1,15-0.8,23-1.5c0.2,0,0.4,0.1,0.4,0.3
				c0,0.2-0.1,0.4-0.3,0.4C113.3,39.8,104.9,40.5,98.2,40.6C98.2,40.6,98.2,40.6,98.2,40.6z" data-v-1c94c849=""></path><path fill="#000" d="M98.9,48.4c-0.2,0-0.4-0.2-0.4-0.4c0-0.2,0.2-0.4,0.4-0.4c8.4-0.2,15.5-0.7,22.9-1.7
				c0.2,0,0.4,0.1,0.4,0.3c0,0.2-0.1,0.4-0.3,0.4C114.5,47.7,107.4,48.2,98.9,48.4C99,48.4,98.9,48.4,98.9,48.4z" data-v-1c94c849=""></path><path fill="#000" d="M96.3,56.6c-0.2,0-0.4-0.2-0.4-0.4c0-0.2,0.2-0.4,0.4-0.4c10-0.1,18.3-1.1,26.4-2c0.2,0,0.4,0.1,0.4,0.3
				c0,0.2-0.1,0.4-0.3,0.4C114.7,55.6,106.3,56.5,96.3,56.6C96.3,56.6,96.3,56.6,96.3,56.6z" data-v-1c94c849=""></path><path fill="#000" d="M101.8,78.3c-0.2,0-0.3-0.1-0.4-0.3c0-0.2,0.1-0.4,0.3-0.4c5.3-0.5,10.1-1.2,14.4-2
				c0.2,0,0.4,0.1,0.4,0.3c0,0.2-0.1,0.4-0.3,0.4C112,77.1,107.1,77.8,101.8,78.3C101.8,78.3,101.8,78.3,101.8,78.3z" data-v-1c94c849=""></path></g></g><g data-v-1c94c849=""><g data-v-1c94c849=""><path fill="#fff" d="M128.4,2.7c1.2,1.2,6.2,6.9,7.1,17.5c0,0.1,0.1,0.2,0.2,0.2c1.8-0.3,14.1-2.4,21.1,4.3
				c0.1,0.1,0.3,0.1,0.3-0.1c0.6-1.9,3.8-12.6-1.8-19.4c0,0,0,0,0,0c-0.4-0.3-9.6-8.4-26.8-2.9C128.3,2.4,128.3,2.5,128.4,2.7z" data-v-1c94c849=""></path><path fill="#000" d="M157,25.1c-0.1,0-0.3-0.1-0.4-0.2c-6.9-6.6-19.4-4.5-20.8-4.2c-0.2,0-0.3,0-0.4-0.1
				c-0.1-0.1-0.2-0.2-0.2-0.4c-0.9-10.6-6-16.3-7-17.3c-0.1-0.1-0.2-0.3-0.1-0.5c0-0.2,0.2-0.3,0.4-0.4c17.4-5.6,26.8,2.6,27.2,2.9
				c0,0,0,0,0.1,0.1c5.7,7,2.6,17.7,1.9,19.8c-0.1,0.2-0.2,0.3-0.4,0.4C157.1,25.1,157,25.1,157,25.1z M142.1,19.4
				c4.6,0,10.6,0.9,14.8,4.8c0.8-2.5,3.4-12.4-1.9-18.8c-0.4-0.3-9.3-8.2-26.2-2.8c1.3,1.4,6.1,7.2,7,17.4
				C136.9,19.8,139.2,19.4,142.1,19.4z M128.6,2.4C128.6,2.4,128.6,2.4,128.6,2.4C128.6,2.4,128.6,2.4,128.6,2.4z" data-v-1c94c849=""></path></g><path fill="#000" d="M140.1,16.9c-0.2,0-0.4-0.2-0.4-0.4c-0.2-6.9-3.5-11.9-3.5-12c-0.1-0.2-0.1-0.4,0.1-0.5
			c0.2-0.1,0.4-0.1,0.5,0.1c0.1,0.2,3.4,5.3,3.6,12.4C140.4,16.7,140.3,16.9,140.1,16.9C140.1,16.9,140.1,16.9,140.1,16.9z" data-v-1c94c849=""></path><path fill="#000" d="M144.9,16.6c-0.2,0-0.4-0.2-0.4-0.4c0-6.5-2.6-12.1-2.6-12.1c-0.1-0.2,0-0.4,0.2-0.5
			c0.2-0.1,0.4,0,0.5,0.2c0,0.1,2.7,5.8,2.7,12.4C145.3,16.4,145.1,16.6,144.9,16.6z" data-v-1c94c849=""></path><path fill="#000" d="M149.5,17.7C149.5,17.7,149.5,17.7,149.5,17.7c-0.3-0.1-0.4-0.3-0.4-0.5c1.2-4.5-1.5-12-1.5-12.1
			c-0.1-0.2,0-0.4,0.2-0.5c0.2-0.1,0.4,0,0.5,0.2c0.1,0.3,2.7,7.8,1.5,12.5C149.8,17.6,149.7,17.7,149.5,17.7z" data-v-1c94c849=""></path><path fill="#000" d="M153.7,18.8C153.7,18.8,153.7,18.8,153.7,18.8c-0.3-0.1-0.4-0.2-0.4-0.4c0.5-2.1,0.6-4.3,0.4-6.6
			c0-0.2,0.1-0.4,0.3-0.4c0.2,0,0.4,0.1,0.4,0.3c0.2,2.4,0.1,4.7-0.4,6.9C154,18.6,153.9,18.8,153.7,18.8z" data-v-1c94c849=""></path></g><g data-v-1c94c849=""><g data-v-1c94c849=""><path fill="#fff" d="M137.9,54.2c1.4,3,11.3,22,35.6,24.8c0.1,0,0.2,0,0.3-0.1c1.7-1,20.6-13.6,24.8-45.8
				c0-0.3-0.2-0.5-0.4-0.4c-3.1,0.3-20.6,1.8-29.8-4.3c-0.2-0.1-0.5,0-0.6,0.2c-0.9,2.9-6.3,17.4-29.6,25
				C137.9,53.7,137.8,53.9,137.9,54.2z" data-v-1c94c849=""></path><path fill="#000" d="M173.5,79.3C173.4,79.3,173.4,79.3,173.5,79.3c-10.4-1.2-19.3-5.4-26.6-12.4c-5.7-5.5-8.6-11-9.3-12.6
				c-0.1-0.2-0.1-0.4,0-0.6c0.1-0.2,0.3-0.4,0.5-0.4c23.1-7.5,28.5-22,29.3-24.8c0.1-0.2,0.2-0.4,0.5-0.5c0.2-0.1,0.5-0.1,0.7,0.1
				c9.1,6,26.2,4.6,29.6,4.2c0.2,0,0.5,0.1,0.6,0.2c0.2,0.2,0.2,0.4,0.2,0.6c-1.8,13.5-6.3,25.2-13.4,34.8
				c-5.5,7.3-10.6,10.7-11.5,11.3C173.7,79.3,173.6,79.3,173.5,79.3z M138.2,54c0.7,1.5,3.5,7,9.1,12.4c7.2,6.9,16,11.1,26.1,12.2
				c1-0.6,6-3.9,11.4-11.1c7.1-9.4,11.5-21,13.3-34.4c0,0,0,0,0,0c-3.4,0.3-20.8,1.8-30.1-4.3c0,0,0,0,0,0
				C167.1,31.6,161.6,46.3,138.2,54C138.2,54,138.2,54,138.2,54l-0.3,0.2L138.2,54z" data-v-1c94c849=""></path></g><path fill="#000" d="M188.5,38.5c-9.9,0-19.3-3.4-19.4-3.5c-0.2-0.1-0.3-0.3-0.2-0.5c0.1-0.2,0.3-0.3,0.5-0.2
			c0.1,0,11.5,4.2,22.2,3.3c0.2,0,0.4,0.1,0.4,0.3c0,0.2-0.1,0.4-0.3,0.4C190.5,38.5,189.5,38.5,188.5,38.5z" data-v-1c94c849=""></path><path fill="#000" d="M189.1,44.8c-4.6,0-9.5-0.9-14.5-2.6c-0.2-0.1-0.3-0.3-0.2-0.5c0.1-0.2,0.3-0.3,0.5-0.2
			c5.4,1.9,10.7,2.8,15.7,2.6c0.2,0,0.4,0.1,0.4,0.3c0,0.2-0.1,0.4-0.3,0.4C190.1,44.8,189.6,44.8,189.1,44.8z" data-v-1c94c849=""></path><path fill="#000" d="M171,40.7c0,0-0.1,0-0.1,0c-2.6-1.1-4.1-2.1-4.2-2.1c-0.2-0.1-0.2-0.3-0.1-0.5c0.1-0.2,0.3-0.2,0.5-0.1
			c0,0,1.6,0.9,4.1,2.1c0.2,0.1,0.3,0.3,0.2,0.5C171.2,40.6,171.1,40.7,171,40.7z" data-v-1c94c849=""></path><path fill="#000" d="M187.7,51.3C187.7,51.3,187.7,51.3,187.7,51.3c-14.5-1.6-23.7-9-23.8-9c-0.2-0.1-0.2-0.4-0.1-0.5
			c0.1-0.2,0.4-0.2,0.5-0.1c0.1,0.1,9.2,7.3,23.4,8.9c0.2,0,0.3,0.2,0.3,0.4C188.1,51.2,187.9,51.3,187.7,51.3z" data-v-1c94c849=""></path><path fill="#000" d="M185.1,57.2C185,57.2,185,57.2,185.1,57.2c-15.5-3-24.5-11.8-24.5-11.9c-0.1-0.1-0.1-0.4,0-0.5
			c0.1-0.1,0.4-0.1,0.5,0c0.1,0.1,8.9,8.7,24.1,11.7c0.2,0,0.3,0.2,0.3,0.4C185.4,57.1,185.2,57.2,185.1,57.2z" data-v-1c94c849=""></path><path fill="#000" d="M181.1,63.2C181.1,63.2,181.1,63.2,181.1,63.2c-2.8-0.5-5.6-1.4-8.3-2.6c-0.2-0.1-0.3-0.3-0.2-0.5
			c0.1-0.2,0.3-0.3,0.5-0.2c2.7,1.2,5.4,2.1,8.1,2.6c0.2,0,0.3,0.2,0.3,0.4C181.4,63.1,181.3,63.2,181.1,63.2z" data-v-1c94c849=""></path><path fill="#000" d="M168.6,58.4c-0.1,0-0.1,0-0.2,0c-7.2-4.3-11.7-9.6-11.8-9.6c-0.1-0.2-0.1-0.4,0-0.5c0.2-0.1,0.4-0.1,0.5,0
			c0,0.1,4.4,5.3,11.6,9.5c0.2,0.1,0.2,0.3,0.1,0.5C168.9,58.3,168.8,58.4,168.6,58.4z" data-v-1c94c849=""></path></g><g data-v-1c94c849=""><g data-v-1c94c849=""><path fill="#fff" d="M116.7,189.6c-2-1.4-10.7-8.3-14.8-23.5c0-0.2-0.2-0.3-0.4-0.2c-2.5,1-19.8,7.2-31.7-0.7
				c-0.2-0.1-0.4,0-0.5,0.2c-0.4,3-2.2,19.2,7.7,27.6c0,0,0,0,0,0c0.6,0.4,16.1,9.7,39.6-2.9C116.8,190,116.9,189.8,116.7,189.6z" data-v-1c94c849=""></path><path fill="#000" d="M92.7,197.1c-9.7,0-15.4-3.5-15.8-3.7c0,0-0.1,0-0.1-0.1c-10-8.5-8.3-24.8-7.8-28c0-0.2,0.2-0.4,0.4-0.5
				c0.2-0.1,0.4-0.1,0.6,0.1c11.8,7.8,29.4,1.4,31.4,0.7c0.2-0.1,0.4-0.1,0.5,0c0.2,0.1,0.3,0.2,0.3,0.4
				c4.1,15.1,12.9,22.1,14.7,23.3c0.2,0.1,0.3,0.4,0.3,0.6c0,0.2-0.1,0.4-0.4,0.6C107.3,195.6,99.2,197.1,92.7,197.1z M69.7,165.6
				c-0.5,3.3-2.1,19,7.6,27.2c0.6,0.4,15.9,9.5,39.1-2.9c-1.9-1.4-10.7-8.4-14.9-23.6c-1.5,0.6-6.3,2.3-12.4,3
				C81.3,170.1,74.7,168.9,69.7,165.6z M116.5,189.9C116.5,189.9,116.5,189.9,116.5,189.9C116.5,189.9,116.5,189.9,116.5,189.9z" data-v-1c94c849=""></path></g><path fill="#000" d="M104.5,189.7c-0.1,0-0.2,0-0.3-0.1c-0.1-0.1-6.3-6.7-8.4-16.9c0-0.2,0.1-0.4,0.3-0.4
			c0.2,0,0.4,0.1,0.4,0.3c2.1,10,8.1,16.4,8.2,16.5c0.1,0.1,0.1,0.4,0,0.5C104.6,189.7,104.6,189.7,104.5,189.7z" data-v-1c94c849=""></path><path fill="#000" d="M96.2,191.8c-0.1,0-0.2-0.1-0.3-0.2c-0.1-0.1-5.3-7.7-7-17.2c0-0.2,0.1-0.4,0.3-0.4c0.2,0,0.4,0.1,0.4,0.3
			c1.7,9.4,6.9,16.8,6.9,16.9c0.1,0.2,0.1,0.4-0.1,0.5C96.3,191.8,96.2,191.8,96.2,191.8z" data-v-1c94c849=""></path><path fill="#000" d="M87.6,191.6c-0.1,0-0.2-0.1-0.3-0.2c-0.2-0.4-6-10.5-5.4-17.6c0-0.2,0.2-0.3,0.4-0.3
			c0.2,0,0.3,0.2,0.3,0.4c-0.5,6.8,5.2,17.1,5.3,17.2c0.1,0.2,0,0.4-0.1,0.5C87.7,191.6,87.7,191.6,87.6,191.6z" data-v-1c94c849=""></path><path fill="#000" d="M77.1,183.8c-0.2,0-0.3-0.1-0.3-0.3c-0.9-3.3-1.4-6.7-1.2-10c0-0.2,0.2-0.4,0.4-0.3c0.2,0,0.4,0.2,0.3,0.4
			c-0.1,3.2,0.3,6.5,1.2,9.7C77.5,183.5,77.4,183.7,77.1,183.8C77.2,183.7,77.2,183.8,77.1,183.8z" data-v-1c94c849=""></path></g><g data-v-1c94c849=""><g data-v-1c94c849=""><path fill="#fff" d="M1.7,162.4c1.8,0.2,13.1,1,20.1-5.9c0.1-0.1,0.2-0.1,0.3,0c1.2,1.6,10.5,12.8,25.5,13
				c0.2,0,0.3,0.2,0.2,0.3c-0.9,1.1-3.7,4.5-7.2,6.5c-3.8,2.2-6.7,5.7-7.1,6.3c0,0.1-0.1,0.1-0.2,0.1c-1.5-0.2-17.2-3-26.1-10.9
				c-4.7-4.2-5.4-8.1-5.6-9.1C1.4,162.5,1.5,162.4,1.7,162.4z" data-v-1c94c849=""></path><path fill="#000" d="M33.1,183C33.1,183,33.1,183,33.1,183c-1.8-0.3-17.4-3-26.4-11c-4.7-4.2-5.5-8.2-5.7-9.4
				c0-0.2,0-0.3,0.2-0.5c0.1-0.1,0.3-0.2,0.5-0.2c2.1,0.2,13,0.9,19.8-5.8c0.1-0.1,0.3-0.2,0.4-0.2c0.2,0,0.3,0.1,0.4,0.2
				c1,1.3,10.3,12.7,25.2,12.9c0.2,0,0.4,0.1,0.5,0.3c0.1,0.2,0.1,0.4-0.1,0.6c-0.8,1-3.8,4.5-7.3,6.6c-3.7,2.2-6.5,5.5-7,6.2
				C33.5,182.9,33.3,183,33.1,183z M1.8,162.8c0.2,1.3,1.1,4.9,5.4,8.7c8.6,7.7,23.7,10.5,25.8,10.8c0.7-0.8,3.5-4.1,7.2-6.3
				c3.2-1.9,5.9-4.9,6.9-6.2c-14.6-0.3-23.8-11.1-25.3-13C15.1,163.5,4.4,163,1.8,162.8z" data-v-1c94c849=""></path></g><path fill="#000" d="M7.1,167.2c-0.2,0-0.4-0.2-0.4-0.4c0-0.2,0.2-0.4,0.4-0.4c0.1,0,10.8-0.3,14.6-5.3
			c0.1-0.2,0.3-0.2,0.5-0.1c0.2,0.1,0.2,0.3,0.1,0.5C18.3,166.8,7.6,167.2,7.1,167.2C7.1,167.2,7.1,167.2,7.1,167.2z" data-v-1c94c849=""></path><path fill="#000" d="M12,171c-0.2,0-0.3-0.1-0.4-0.3c0-0.2,0.1-0.4,0.3-0.4c0.1,0,8.5-1.4,12.4-6.4c0.1-0.2,0.4-0.2,0.5-0.1
			c0.2,0.1,0.2,0.4,0.1,0.5C20.8,169.6,12.4,171,12,171C12,171,12,171,12,171z" data-v-1c94c849=""></path><path fill="#000" d="M37.3,174.4c-0.1,0-0.3-0.1-0.3-0.2c-0.1-0.2,0-0.4,0.2-0.5c0,0,2.2-1.1,3-2.1c0.1-0.2,0.4-0.2,0.5-0.1
			c0.2,0.1,0.2,0.4,0.1,0.5c-0.9,1.2-3.1,2.3-3.2,2.3C37.4,174.4,37.4,174.4,37.3,174.4z" data-v-1c94c849=""></path></g><g data-v-1c94c849=""><g data-v-1c94c849=""><g data-v-1c94c849=""><path fill="#000" d="M82.4,36.3c-15.6,0-27.6-1.3-27.7-1.3c-0.4,0-0.7-0.4-0.6-0.8c0-0.4,0.4-0.7,0.8-0.6
					c0.1,0,12.7,1.4,28.9,1.3c0.4,0,0.7,0.3,0.7,0.7c0,0.4-0.3,0.7-0.7,0.7C83.3,36.3,82.8,36.3,82.4,36.3z" data-v-1c94c849=""></path><path fill="#000" d="M80.5,44.2c-13.9,0-26.7-1.2-26.9-1.3c-0.4,0-0.7-0.4-0.6-0.8c0-0.4,0.4-0.7,0.8-0.6
					c0.2,0,15.8,1.5,31.3,1.2c0.4,0,0.7,0.3,0.7,0.7c0,0.4-0.3,0.7-0.7,0.7C83.6,44.2,82.1,44.2,80.5,44.2z" data-v-1c94c849=""></path><path fill="#000" d="M77.9,51.6c-14.7,0-25-1-25.1-1c-0.4,0-0.7-0.4-0.6-0.8c0-0.4,0.4-0.7,0.8-0.6c0.1,0,14.9,1.5,34.3,0.9
					c0.4,0,0.7,0.3,0.7,0.7c0,0.4-0.3,0.7-0.7,0.7C84.1,51.6,80.9,51.6,77.9,51.6z" data-v-1c94c849=""></path><path fill="#000" d="M78.8,59.1c-12.3,0-22.7-0.8-22.8-0.8c-0.4,0-0.7-0.4-0.7-0.8c0-0.4,0.4-0.7,0.8-0.7
					c0.2,0,17,1.3,33.1,0.6c0.4,0,0.7,0.3,0.8,0.7c0,0.4-0.3,0.7-0.7,0.8C85.7,59,82.2,59.1,78.8,59.1z" data-v-1c94c849=""></path></g><g data-v-1c94c849=""><path fill="#000" d="M75.4,20.1c-13.9,0-25.1,11.4-25.1,25.4s11.3,25.4,25.1,25.4c13.9,0,25.1-11.4,25.1-25.4
					S89.3,20.1,75.4,20.1z M75.4,67.5c-12.1,0-21.8-9.9-21.8-22c0-12.2,9.8-22,21.8-22c12.1,0,21.8,9.9,21.8,22
					C97.2,57.7,87.5,67.5,75.4,67.5z" data-v-1c94c849=""></path><path fill="#000" d="M98.5,77.3c-0.7,0.5-1.7,0.4-2.2-0.3L89,66.9l2.5-1.9l7.3,10.1C99.4,75.8,99.2,76.8,98.5,77.3z" data-v-1c94c849=""></path></g></g><g data-v-1c94c849=""><g data-v-1c94c849=""><g data-v-1c94c849=""><polygon fill="#5479F7" points="179.3,179.2 185.2,183.9 189.6,178.6 183.6,174.1 					" data-v-1c94c849=""></polygon></g><g data-v-1c94c849=""><polygon fill="#5479F7" points="145.9,185.7 146.2,189.8 153,189.8 152.6,185.7 					" data-v-1c94c849=""></polygon></g></g><g data-v-1c94c849=""><g data-v-1c94c849=""><path fill="#fff" d="M146.4,189.7h6.4c0.5,0,0.9,0.3,1,0.7c0.6,1.4,1.7,4.6,1.6,7.7c0,0.8-0.7,1.5-1.6,1.5h-18.7
						c-0.9,0-1.5-0.8-1.3-1.6c0.2-1,0.9-2.4,3-3.6c3.3-1.9,7.5-3.9,8.8-4.5C145.8,189.7,146.1,189.7,146.4,189.7z" data-v-1c94c849=""></path><path fill="#000" d="M153.8,199.9h-18.7c-0.5,0-1-0.2-1.3-0.6c-0.3-0.4-0.5-0.9-0.4-1.4c0.2-1,0.9-2.5,3.1-3.8
						c3.4-2,7.6-4,8.8-4.5c0.3-0.1,0.7-0.2,1-0.2h6.4c0.6,0,1.1,0.4,1.4,0.9c0.5,1.3,1.7,4.7,1.6,7.9
						C155.7,199.1,154.8,199.9,153.8,199.9z M146.4,190c-0.2,0-0.5,0.1-0.7,0.2c-1.2,0.6-5.4,2.5-8.8,4.5c-1.6,0.9-2.5,2.1-2.8,3.3
						c-0.1,0.3,0,0.6,0.2,0.8c0.2,0.2,0.5,0.4,0.8,0.4h18.7c0.6,0,1.2-0.5,1.2-1.2c0.2-3-1-6.3-1.5-7.5c-0.1-0.3-0.4-0.5-0.7-0.5
						H146.4z" data-v-1c94c849=""></path></g><path fill="#000" d="M145,195.6c-0.1,0-0.2-0.1-0.3-0.2l-2.5-3.8c-0.1-0.2-0.1-0.4,0.1-0.5c0.2-0.1,0.4-0.1,0.5,0.1l2.5,3.8
					c0.1,0.2,0.1,0.4-0.1,0.5C145.1,195.6,145,195.6,145,195.6z" data-v-1c94c849=""></path><path fill="#000" d="M142.5,197.1c-0.1,0-0.2-0.1-0.3-0.2l-2.5-3.8c-0.1-0.2-0.1-0.4,0.1-0.5c0.2-0.1,0.4-0.1,0.5,0.1
					l2.5,3.8c0.1,0.2,0.1,0.4-0.1,0.5C142.6,197,142.6,197.1,142.5,197.1z" data-v-1c94c849=""></path></g><g data-v-1c94c849=""><g data-v-1c94c849=""><path fill="#fff" d="M185.3,184l3.9-5c0.3-0.4,0.7-0.5,1.2-0.4c1.4,0.4,4.7,1.5,7,3.5c0.6,0.6,0.7,1.5,0.2,2.2L186,199.1
						c-0.5,0.7-1.6,0.7-2.1,0c-0.7-0.8-1.3-2.2-0.9-4.6c0.5-3.8,1.6-8.3,2-9.8C185,184.5,185.1,184.3,185.3,184z" data-v-1c94c849=""></path><path fill="#000" d="M184.9,200c-0.5,0-1-0.2-1.3-0.6c-0.7-0.8-1.4-2.3-1-4.8c0.5-3.9,1.6-8.5,2-9.8
						c0.1-0.3,0.2-0.7,0.5-0.9l3.9-5c0.4-0.5,1-0.7,1.6-0.5c1.3,0.4,4.7,1.5,7.1,3.6c0.8,0.7,0.9,1.8,0.2,2.7l-11.6,14.8
						C186,199.7,185.5,200,184.9,200C184.9,200,184.9,200,184.9,200z M190.1,178.9c-0.2,0-0.4,0.1-0.6,0.3l-3.9,5
						c-0.2,0.2-0.3,0.4-0.3,0.7c-0.3,1.3-1.4,5.9-1.9,9.7c-0.3,1.8,0,3.3,0.9,4.3c0.2,0.2,0.5,0.4,0.8,0.4c0.3,0,0.6-0.1,0.8-0.4
						l11.6-14.8c0.4-0.5,0.3-1.2-0.1-1.7c-2.3-2-5.5-3.1-6.8-3.5C190.3,178.9,190.2,178.9,190.1,178.9z" data-v-1c94c849=""></path></g><path fill="#000" d="M188.7,189C188.7,189,188.7,189,188.7,189l-4.6-0.4c-0.2,0-0.3-0.2-0.3-0.4c0-0.2,0.2-0.3,0.4-0.3
					l4.6,0.4c0.2,0,0.3,0.2,0.3,0.4C189.1,188.9,188.9,189,188.7,189z" data-v-1c94c849=""></path><path fill="#000" d="M188.3,191.9C188.3,191.9,188.3,191.9,188.3,191.9l-4.6-0.4c-0.2,0-0.3-0.2-0.3-0.4
					c0-0.2,0.2-0.3,0.4-0.3l4.6,0.4c0.2,0,0.3,0.2,0.3,0.4C188.7,191.7,188.5,191.9,188.3,191.9z" data-v-1c94c849=""></path></g><g data-v-1c94c849=""><path fill="#000" d="M161,118.6c0,0,2.2,7.1,2.9,17.5c0.7,10.4,16.2,22.2,21.6,38l-5.7,6.9c0,0-17.2-13.3-20.5-18.8
					c-3.5-5.8-7.7-17.9-7.7-17.9l3-22.3l0.5-0.1c1.4-0.3,2.7-0.8,3.9-1.4C159.9,120.1,160.6,119.4,161,118.6z" data-v-1c94c849=""></path><path fill="#000" d="M159.3,120.5c0,0,1.5,9.4-3.3,17.1s-4.4,15.6-3.5,19.6c0.9,4,3,15.8,0,28.6c0,0-3,1.3-6.6,0
					c0,0-9.3-21.1-9.7-34.1c-0.4-13,5-30.5,5-30.5S152.2,124.4,159.3,120.5z" data-v-1c94c849=""></path></g><g data-v-1c94c849=""><g data-v-1c94c849=""><path fill="#fff" d="M101,79.1c0.3-0.2,0.5-0.5,0.6-0.9c0.2-1.2,0.4-4-0.9-5.7c-1.7-2.1-4.7-3-5-2.4c-0.3,0.6,4,4.4,2.6,6.7
						c0,0-1.4,0.4-3.3-1.2c-0.3-0.2-0.7-0.1-0.8,0.3c-0.1,0.5,0,1.2,0.5,2.2c0.7,1.3,1.9,2.1,2.7,2.6c0.4,0.2,0.9,0.2,1.3,0
						L101,79.1z" data-v-1c94c849=""></path><path fill="#000" d="M98,81.2c-0.3,0-0.6-0.1-0.8-0.2c-0.9-0.5-2.1-1.4-2.8-2.7c-0.5-0.9-0.6-1.7-0.5-2.4
						c0.1-0.3,0.2-0.5,0.5-0.6c0.3-0.1,0.6-0.1,0.8,0.1c1.4,1.2,2.5,1.2,2.8,1.1c0.7-1.3-0.8-3.3-1.8-4.6c-0.7-1-1.1-1.5-0.9-1.9
						c0.1-0.1,0.3-0.3,0.7-0.4c1.1-0.1,3.4,0.8,4.9,2.7c1.4,1.8,1.2,4.8,1,6c-0.1,0.5-0.3,0.9-0.7,1.1l-2.4,1.6
						C98.6,81.1,98.3,81.2,98,81.2z M94.6,75.9C94.6,75.9,94.6,75.9,94.6,75.9c-0.1,0-0.1,0-0.1,0.1c-0.1,0.4,0,1,0.4,2
						c0.6,1.2,1.9,2.1,2.5,2.4c0.3,0.2,0.7,0.2,0.9,0l2.4-1.6l0.2,0.3l-0.2-0.3c0.2-0.1,0.4-0.4,0.4-0.6c0.2-1.1,0.4-3.9-0.8-5.4
						c-1.5-1.9-3.8-2.5-4.4-2.4c0.1,0.2,0.5,0.7,0.8,1.1c1.1,1.5,2.9,3.9,1.7,5.6l-0.1,0.1l-0.1,0C98.3,77.1,96.8,77.6,94.6,75.9
						C94.7,75.9,94.7,75.9,94.6,75.9z" data-v-1c94c849=""></path></g><g data-v-1c94c849=""><path fill="#fff" d="M169.9,112.8c0,0,7.5-0.7,9.4,0.4c1.9,1.1,1.7,2.4,0.9,3c-0.6,0.4-4.6,0.2-6.3,0
						c-0.1,0-0.2,0.2-0.1,0.2c1,0.4,2.6,1.3,2.4,2c-0.3,1-6.6-1-6.6-1L169.9,112.8z" data-v-1c94c849=""></path><path fill="#000" d="M175.4,119c-1.7,0-4.8-1-5.9-1.3l-0.3-0.1l0.3-5.1l0.3,0c0.3,0,7.6-0.7,9.6,0.4
						c1.4,0.8,1.6,1.7,1.6,2.1c0,0.6-0.3,1.1-0.7,1.5c-0.5,0.3-2.3,0.4-5.3,0.2c1.2,0.6,1.7,1.2,1.5,1.8c0,0.1-0.1,0.3-0.3,0.4
						C176.1,118.9,175.8,119,175.4,119z M170,117.1c2.5,0.8,5.3,1.4,5.8,1.1c0-0.2-0.5-0.7-2.2-1.5c-0.2-0.1-0.3-0.3-0.3-0.6
						c0.1-0.2,0.3-0.4,0.5-0.4c4.3,0.4,5.9,0.2,6.1,0.1c0.3-0.2,0.4-0.5,0.4-0.8c0-0.5-0.5-1.1-1.3-1.5c-1.4-0.8-6.6-0.5-8.9-0.4
						L170,117.1z" data-v-1c94c849=""></path></g><g data-v-1c94c849=""><path fill="#5479F7" d="M153.7,106.2c-2.5-8.8-6.4-20.5-13.2-22.3l0.1-5.3c0,0-12.2,2.3-13.1,9.2c-5.4,1.4-11.1,1-16.3-1.5
						c-3.1-1.5-6.2-4.9-9.3-8.2l-5.1,3.3c0,0,10.6,25.9,34.4,18.8c0,0,7.3,5.5,6.3,19.1c0,0,9.6,7.9,22.9,0.7
						C160.3,119.9,156.1,115,153.7,106.2z" data-v-1c94c849=""></path><path fill="#5479F7" d="M171.1,111.8l-0.5,6.7c0,0-18.6,11.1-32.8-22.2l12.2-1.2C149.9,95,154.1,108.1,171.1,111.8z" data-v-1c94c849=""></path><path fill="#000" d="M160.1,120.7C160.1,120.7,160,120.7,160.1,120.7c-11.1-2.6-15.4-8.5-18.9-13.2
						c-0.1-0.2-0.1-0.4,0.1-0.5c0.2-0.1,0.4-0.1,0.5,0.1c3.4,4.6,7.6,10.3,18.4,12.9c0.2,0,0.3,0.2,0.3,0.4
						C160.4,120.6,160.3,120.7,160.1,120.7z" data-v-1c94c849=""></path><path fill="#000" d="M135.3,92.2c-0.2,0-0.4-0.2-0.4-0.3c-0.3-6.4,2.6-10.7,2.8-10.9c0.1-0.2,0.3-0.2,0.5-0.1
						c0.2,0.1,0.2,0.3,0.1,0.5c0,0-2.9,4.3-2.6,10.4C135.7,92.1,135.5,92.2,135.3,92.2C135.3,92.2,135.3,92.2,135.3,92.2z" data-v-1c94c849=""></path><path fill="#000" d="M130.8,100c-0.1,0-0.2,0-0.2-0.1c-3.3-3-3.2-6.2-3.2-6.3c0-0.2,0.2-0.4,0.4-0.3c0.2,0,0.4,0.2,0.3,0.4
						c0,0-0.1,3,3,5.7c0.1,0.1,0.2,0.4,0,0.5C131,100,130.9,100,130.8,100z" data-v-1c94c849=""></path></g></g><g data-v-1c94c849=""><g data-v-1c94c849=""><path fill="#fff" d="M125.5,72.9c0,0-3.3-0.7-3,1.4c0.3,2.1,0.4,7.1,2.1,7.7c1.7,0.6,3.6-1.8,4.7-0.7c1.2,1.1,2,2.7,2.6,4.7
						c0.4,0.1,1.1,0.3,2,0.1c1.8-0.4,2.4-2.2,2.5-2.3c-0.4-0.5-0.9-1-1.3-1.7c-0.7-1-1.5-2.4-1.8-3.8L125.5,72.9z" data-v-1c94c849=""></path><path fill="#000" d="M133.1,86.6c-0.5,0-1-0.1-1.3-0.2l-0.2-0.1l-0.1-0.2c-0.6-2.1-1.4-3.5-2.5-4.5c-0.4-0.4-1-0.1-1.8,0.3
						c-0.8,0.4-1.8,0.9-2.8,0.5c-1.6-0.6-1.9-3.8-2.2-6.5c-0.1-0.6-0.1-1.1-0.2-1.6c-0.1-0.7,0.2-1.2,0.4-1.4c0.9-0.8,2.8-0.5,3-0.4
						l0.1,0l8,5.6l0,0.1c0.3,1.4,1.1,2.7,1.7,3.6c0.4,0.6,0.9,1.2,1.3,1.6l0.2,0.2l-0.1,0.2c-0.1,0.2-0.8,2.1-2.7,2.6
						C133.7,86.5,133.4,86.6,133.1,86.6z M132.2,85.7c0.4,0.1,1,0.2,1.6,0.1c1.3-0.3,1.9-1.4,2.2-1.9c-0.4-0.4-0.8-0.9-1.2-1.5
						c-0.9-1.3-1.5-2.6-1.8-3.8l-7.6-5.3c-0.5-0.1-1.8-0.2-2.3,0.3c-0.2,0.2-0.2,0.4-0.2,0.8c0.1,0.4,0.1,1,0.2,1.6
						c0.2,2,0.6,5.5,1.7,5.9c0.7,0.2,1.5-0.1,2.2-0.5c0.9-0.4,1.9-0.9,2.6-0.2C130.7,82.1,131.6,83.6,132.2,85.7z" data-v-1c94c849=""></path></g><path fill="#000" d="M125.8,78.5c-0.1,0-0.3-0.1-0.3-0.2c-0.1-0.2,0-0.4,0.2-0.5c0.8-0.3,1.1-1.5,1-2.4
					c-0.1-0.8-0.4-1.4-0.7-1.4c-0.8-0.1-1.2,1.6-1.2,1.6c0,0.2-0.2,0.3-0.4,0.3c-0.2,0-0.3-0.2-0.3-0.4c0.2-0.9,0.8-2.3,2-2.2
					c0.7,0.1,1.2,0.9,1.3,2.1c0.1,1.3-0.3,2.7-1.5,3.2C125.8,78.5,125.8,78.5,125.8,78.5z" data-v-1c94c849=""></path><path fill="#000" d="M124.7,74.6c0,0-3.4,0.6-3.3-2.7c0.1-3.4,2.5-6.7,8.9-5.4c0,0,1.5-4.4,5.2-3.1c3.7,1.3,2.5,7.1-1.2,7.6
					c0,0,3.1,5.7-0.8,7.8c-1,0.5-2.2,0.6-3.3,0.4c-1.2-0.3-2.7-0.8-3.3-2.1c0,0,0.5-2.7-0.5-3.3C125.3,73.1,124.7,74.6,124.7,74.6z" data-v-1c94c849=""></path></g></g></g><g data-v-1c94c849=""><path fill="#000" d="M138.4,38.7c-1.4,0-2.5-1.1-2.5-2.6s1.1-2.6,2.5-2.6c1.4,0,2.5,1.1,2.5,2.6S139.8,38.7,138.4,38.7z
			 M138.4,34.3c-1,0-1.8,0.8-1.8,1.8c0,1,0.8,1.8,1.8,1.8c1,0,1.8-0.8,1.8-1.8C140.2,35.1,139.4,34.3,138.4,34.3z" data-v-1c94c849=""></path><path fill="#000" d="M55,183.6c-1.5,0-2.7-1.2-2.7-2.8c0-1.5,1.2-2.8,2.7-2.8c1.5,0,2.7,1.2,2.7,2.8
			C57.7,182.3,56.5,183.6,55,183.6z M55,178.7c-1.1,0-2,0.9-2,2c0,1.1,0.9,2,2,2c1.1,0,2-0.9,2-2C57,179.7,56.1,178.7,55,178.7z" data-v-1c94c849=""></path><g data-v-1c94c849=""><path fill="#000" d="M178.4,86.8c-0.1,0-0.2,0-0.3-0.1l-0.7-0.7c-0.1-0.1-0.1-0.4,0-0.5c0.1-0.1,0.4-0.1,0.5,0l0.7,0.7
				c0.1,0.1,0.1,0.4,0,0.5C178.6,86.8,178.5,86.8,178.4,86.8z" data-v-1c94c849=""></path><path fill="#000" d="M180.9,89.4c-0.1,0-0.2,0-0.3-0.1l-0.7-0.7c-0.1-0.1-0.1-0.4,0-0.5c0.1-0.1,0.4-0.1,0.5,0l0.7,0.7
				c0.1,0.1,0.1,0.4,0,0.5C181.1,89.3,181,89.4,180.9,89.4z" data-v-1c94c849=""></path><path fill="#000" d="M177.7,89.4c-0.1,0-0.2,0-0.3-0.1c-0.1-0.1-0.1-0.4,0-0.5l0.7-0.7c0.1-0.1,0.4-0.1,0.5,0
				c0.1,0.1,0.1,0.4,0,0.5l-0.7,0.7C177.9,89.3,177.8,89.4,177.7,89.4z" data-v-1c94c849=""></path><path fill="#000" d="M180.2,86.8c-0.1,0-0.2,0-0.3-0.1c-0.1-0.1-0.1-0.4,0-0.5l0.7-0.7c0.1-0.1,0.4-0.1,0.5,0
				c0.1,0.1,0.1,0.4,0,0.5l-0.7,0.7C180.4,86.8,180.3,86.8,180.2,86.8z" data-v-1c94c849=""></path></g><g data-v-1c94c849=""><path fill="#000" d="M17.2,116c-0.1,0-0.2,0-0.3-0.1L16,115c-0.1-0.1-0.1-0.4,0-0.5c0.1-0.1,0.4-0.1,0.5,0l0.8,0.9
				c0.1,0.1,0.1,0.4,0,0.5C17.3,116,17.2,116,17.2,116z" data-v-1c94c849=""></path><path fill="#000" d="M20.1,119c-0.1,0-0.2,0-0.3-0.1L19,118c-0.1-0.1-0.1-0.4,0-0.5c0.1-0.1,0.4-0.1,0.5,0l0.8,0.9
				c0.1,0.1,0.1,0.4,0,0.5C20.3,119,20.2,119,20.1,119z" data-v-1c94c849=""></path><path fill="#000" d="M16.3,119c-0.1,0-0.2,0-0.3-0.1c-0.1-0.1-0.1-0.4,0-0.5l0.8-0.9c0.1-0.1,0.4-0.1,0.5,0
				c0.1,0.1,0.1,0.4,0,0.5l-0.8,0.9C16.5,119,16.4,119,16.3,119z" data-v-1c94c849=""></path><path fill="#000" d="M19.3,116c-0.1,0-0.2,0-0.3-0.1c-0.1-0.1-0.1-0.4,0-0.5l0.8-0.9c0.1-0.1,0.4-0.1,0.5,0
				c0.1,0.1,0.1,0.4,0,0.5l-0.8,0.9C19.5,116,19.4,116,19.3,116z" data-v-1c94c849=""></path></g><g data-v-1c94c849=""><path fill="#000" d="M122.5,171.4c-0.1,0-0.2,0-0.3-0.1l-1.5-1.5c-0.1-0.1-0.1-0.4,0-0.5c0.1-0.1,0.4-0.1,0.5,0l1.5,1.5
				c0.1,0.1,0.1,0.4,0,0.5C122.7,171.4,122.6,171.4,122.5,171.4z" data-v-1c94c849=""></path><path fill="#000" d="M127.6,176.6c-0.1,0-0.2,0-0.3-0.1l-1.5-1.5c-0.1-0.1-0.1-0.4,0-0.5c0.1-0.1,0.4-0.1,0.5,0l1.5,1.5
				c0.1,0.1,0.1,0.4,0,0.5C127.8,176.6,127.7,176.6,127.6,176.6z" data-v-1c94c849=""></path><path fill="#000" d="M121,176.6c-0.1,0-0.2,0-0.3-0.1c-0.1-0.1-0.1-0.4,0-0.5l1.5-1.5c0.1-0.1,0.4-0.1,0.5,0
				c0.1,0.1,0.1,0.4,0,0.5l-1.5,1.5C121.2,176.6,121.1,176.6,121,176.6z" data-v-1c94c849=""></path><path fill="#000" d="M126.2,171.4c-0.1,0-0.2,0-0.3-0.1c-0.1-0.1-0.1-0.4,0-0.5l1.5-1.5c0.1-0.1,0.4-0.1,0.5,0
				c0.1,0.1,0.1,0.4,0,0.5l-1.5,1.5C126.4,171.4,126.3,171.4,126.2,171.4z" data-v-1c94c849=""></path></g></g></svg>